<svg width="26" height="26" viewBox="0 0 26 26" fill="none" xmlns="http://www.w3.org/2000/svg">
<path d="M13 2.35037C16.4458 2.35037 16.9157 2.35037 18.3253 2.35037C19.5783 2.35037 20.2048 2.66363 20.6747 2.82025C21.3012 3.13351 21.7711 3.29013 22.241 3.76001C22.7108 4.22989 23.0241 4.69977 23.1807 5.32628C23.3374 5.79616 23.494 6.42266 23.6506 7.67568C23.6506 9.08532 23.6506 9.39857 23.6506 13.001C23.6506 16.6034 23.6506 16.9166 23.6506 18.3263C23.6506 19.5793 23.3374 20.2058 23.1807 20.6757C22.8675 21.3022 22.7108 21.7721 22.241 22.2419C21.7711 22.7118 21.3012 23.0251 20.6747 23.1817C20.2048 23.3383 19.5783 23.495 18.3253 23.6516C16.9157 23.6516 16.6024 23.6516 13 23.6516C9.39759 23.6516 9.08434 23.6516 7.6747 23.6516C6.42169 23.6516 5.79518 23.3383 5.3253 23.1817C4.6988 22.8684 4.22892 22.7118 3.75904 22.2419C3.28916 21.7721 2.9759 21.3022 2.81928 20.6757C2.66265 20.2058 2.50602 19.5793 2.3494 18.3263C2.3494 16.9166 2.3494 16.6034 2.3494 13.001C2.3494 9.39857 2.3494 9.08532 2.3494 7.67568C2.3494 6.42266 2.66265 5.79616 2.81928 5.32628C3.13253 4.69977 3.28916 4.22989 3.75904 3.76001C4.22892 3.29013 4.6988 2.97688 5.3253 2.82025C5.79518 2.66363 6.42169 2.507 7.6747 2.35037C9.08434 2.35037 9.55422 2.35037 13 2.35037ZM13 0.000976562C9.39759 0.000976562 9.08434 0.000976562 7.6747 0.000976562C6.26506 0.000976562 5.3253 0.31423 4.54217 0.627484C3.75904 0.940737 2.9759 1.41062 2.19277 2.19375C1.40964 2.97688 1.09639 3.60339 0.626507 4.54315C0.313254 5.32628 0.156627 6.26604 0 7.67568C0 9.08532 0 9.5552 0 13.001C0 16.6034 0 16.9166 0 18.3263C0 19.7359 0.313254 20.6757 0.626507 21.4588C0.93976 22.2419 1.40964 23.0251 2.19277 23.8082C2.9759 24.5913 3.60241 24.9046 4.54217 25.3745C5.3253 25.6877 6.26506 25.8443 7.6747 26.001C9.08434 26.001 9.55422 26.001 13 26.001C16.4458 26.001 16.9157 26.001 18.3253 26.001C19.7349 26.001 20.6747 25.6877 21.4578 25.3745C22.241 25.0612 23.0241 24.5913 23.8072 23.8082C24.5904 23.0251 24.9036 22.3986 25.3735 21.4588C25.6868 20.6757 25.8434 19.7359 26 18.3263C26 16.9166 26 16.4468 26 13.001C26 9.5552 26 9.08532 26 7.67568C26 6.26604 25.6868 5.32628 25.3735 4.54315C25.0602 3.76001 24.5904 2.97688 23.8072 2.19375C23.0241 1.41062 22.3976 1.09736 21.4578 0.627484C20.6747 0.31423 19.7349 0.157603 18.3253 0.000976562C16.9157 0.000976563 16.6024 0.000976562 13 0.000976562Z" fill="#070707"/>
<path d="M13 6.26604C9.24096 6.26604 6.26506 9.24194 6.26506 13.001C6.26506 16.76 9.24096 19.7359 13 19.7359C16.759 19.7359 19.7349 16.76 19.7349 13.001C19.7349 9.24194 16.759 6.26604 13 6.26604ZM13 17.3865C10.6506 17.3865 8.61446 15.507 8.61446 13.001C8.61446 10.6516 10.494 8.61544 13 8.61544C15.3494 8.61544 17.3855 10.495 17.3855 13.001C17.3855 15.3504 15.3494 17.3865 13 17.3865Z" fill="#070707"/>
<path d="M19.8916 7.67568C20.7566 7.67568 21.4578 6.97444 21.4578 6.10941C21.4578 5.24439 20.7566 4.54315 19.8916 4.54315C19.0265 4.54315 18.3253 5.24439 18.3253 6.10941C18.3253 6.97444 19.0265 7.67568 19.8916 7.67568Z" fill="#070707"/>
</svg>
