<svg width="28" height="28" viewBox="0 0 28 28" fill="none" xmlns="http://www.w3.org/2000/svg">
<path d="M23.3049 4.68218C20.7366 2.1228 17.3122 0.700928 13.6976 0.700928C6.18292 0.700928 0.0951205 6.76759 0.0951205 14.2561C0.0951205 16.6259 0.760976 18.9957 1.90244 20.9863L0 28.0009L7.22927 26.1051C9.22683 27.1478 11.4146 27.7166 13.6976 27.7166C21.2122 27.7166 27.3 21.6499 27.3 14.1613C27.2049 10.6541 25.8732 7.24155 23.3049 4.68218ZM20.261 19.0905C19.9756 19.8488 18.6439 20.6072 17.978 20.702C17.4073 20.7968 16.6463 20.7968 15.8854 20.6072C15.4098 20.4176 14.7439 20.228 13.9829 19.8488C10.5585 18.427 8.37073 15.0145 8.18049 14.7301C7.99025 14.5405 6.75366 12.9291 6.75366 11.2228C6.75366 9.51655 7.60975 8.75822 7.89512 8.37905C8.18049 7.99988 8.56097 7.99989 8.84634 7.99989C9.03658 7.99989 9.32195 7.99989 9.51219 7.99989C9.70243 7.99989 9.9878 7.90509 10.2732 8.56864C10.5585 9.23218 11.2244 10.9384 11.3195 11.0332C11.4146 11.2228 11.4146 11.4124 11.3195 11.602C11.2244 11.7916 11.1293 11.9811 10.939 12.1707C10.7488 12.3603 10.5585 12.6447 10.4634 12.7395C10.2732 12.9291 10.0829 13.1186 10.2732 13.403C10.4634 13.7822 11.1293 14.8249 12.1756 15.7728C13.5073 16.9103 14.5537 17.2895 14.9341 17.4791C15.3146 17.6686 15.5049 17.5738 15.6951 17.3843C15.8854 17.1947 16.5512 16.4363 16.7415 16.0572C16.9317 15.678 17.2171 15.7728 17.5024 15.8676C17.7878 15.9624 19.5 16.8155 19.7854 17.0051C20.1659 17.1947 20.3561 17.2895 20.4512 17.3843C20.5463 17.6686 20.5463 18.3322 20.261 19.0905Z" fill="#070707"/>
</svg>
