<svg width="22" height="22" viewBox="0 0 22 22" fill="none" xmlns="http://www.w3.org/2000/svg">
<path fill-rule="evenodd" clip-rule="evenodd" d="M20.6681 18.6312C20.6681 18.7788 20.3728 18.8968 20.2252 19.1035C19.8244 19.5491 19.3902 19.9636 18.9264 20.3433C18.0384 20.8088 17.0507 21.052 16.0481 21.052C15.0455 21.052 14.0579 20.8088 13.1699 20.3433C10.6549 19.1964 8.37312 17.5952 6.43927 15.6201C4.45518 13.6939 2.85269 11.4104 1.71602 8.88947C1.23272 7.98055 0.97998 6.96687 0.97998 5.93744C0.97998 4.90802 1.23272 3.89433 1.71602 2.98541C2.08792 2.51475 2.50301 2.07989 2.95588 1.68651L3.45772 1.2437C3.56835 1.12289 3.7029 1.02644 3.85282 0.96044C4.00275 0.894443 4.16476 0.860352 4.32857 0.860352C4.49238 0.860352 4.65439 0.894443 4.80432 0.96044C4.95424 1.02644 5.08879 1.12289 5.19942 1.2437L8.44665 4.46143C8.56536 4.5794 8.65957 4.71967 8.72385 4.87419C8.78814 5.02871 8.82123 5.19444 8.82123 5.3618C8.82123 5.52916 8.78814 5.69486 8.72385 5.84938C8.65957 6.0039 8.56536 6.14419 8.44665 6.26217L7.56104 7.11823C7.26905 7.41145 7.07968 7.79121 7.02116 8.20085C6.96264 8.61049 7.03811 9.02807 7.23632 9.39131C8.45383 11.6661 10.3115 13.534 12.5795 14.764C12.948 14.9494 13.3652 15.0149 13.7728 14.9513C14.1804 14.8878 14.5579 14.6985 14.8526 14.4098L15.7382 13.5242C15.8536 13.4063 15.9914 13.3127 16.1435 13.2488C16.2955 13.1849 16.4588 13.152 16.6238 13.152C16.7887 13.152 16.952 13.1849 17.1041 13.2488C17.2562 13.3127 17.3939 13.4063 17.5094 13.5242L20.7271 16.7714C20.8513 16.8942 20.9488 17.0413 21.0135 17.2035C21.0782 17.3658 21.1087 17.5396 21.1032 17.7141C21.0976 17.8887 21.0561 18.0602 20.9813 18.218C20.9064 18.3758 20.7998 18.5165 20.6681 18.6312Z" fill="#FAFAFA"/>
</svg>
