<svg width="24" height="14" viewBox="0 0 24 14" fill="none" xmlns="http://www.w3.org/2000/svg">
<path d="M0.103174 11.3659L5.79307 6.99984L0.103174 2.63381C0.0682926 2.60693 0.0338956 2.57943 0 2.55132L0 11.4484C0.0338866 11.4202 0.0682838 11.3927 0.103174 11.3659ZM22.3874 12.45L16.4069 7.86108L11.6612 11.5026L6.91551 7.86108L0.935083 12.45C0.441987 12.8283 0.117204 13.391 0.0266477 13.9998H23.2957C23.2052 13.391 22.8804 12.8283 22.3874 12.45ZM23.2192 2.63381L17.5293 6.99984L23.2193 11.3659C23.2543 11.3927 23.2885 11.4204 23.3225 11.4484V2.55127C23.2885 2.57938 23.2541 2.6069 23.2192 2.63381Z" fill="#FAFAFA"/>
<path d="M0.935245 1.5498L11.6614 9.78029L22.3875 1.5498C22.8806 1.17145 23.2054 0.608888 23.296 0H0.0268555C0.117458 0.608888 0.442195 1.17145 0.935245 1.5498Z" fill="#FAFAFA"/>
</svg>
