<svg width="20" height="20" viewBox="0 0 20 20" fill="none" xmlns="http://www.w3.org/2000/svg">
<g clip-path="url(#clip0_31_955)">
<path d="M9.99991 0C6.17296 0 3.05957 3.11385 3.05957 6.94089C3.05957 10.6248 9.35666 19.2316 9.62478 19.596L9.87502 19.9366C9.88939 19.9562 9.90818 19.9722 9.92988 19.9832C9.95158 19.9942 9.97557 20 9.99991 20C10.0244 20 10.0485 19.9943 10.0703 19.9833C10.0921 19.9723 10.1111 19.9563 10.1256 19.9366L10.3756 19.596C10.6439 19.2316 16.9408 10.6248 16.9408 6.94089C16.9408 3.11385 13.827 0 9.99991 0ZM9.99991 4.45468C11.3711 4.45468 12.4861 5.56974 12.4861 6.94089C12.4861 8.31134 11.3711 9.42711 9.99991 9.42711C8.62951 9.42711 7.51369 8.31134 7.51369 6.94089C7.51369 5.56974 8.62946 4.45468 9.99991 4.45468Z" fill="#FAFAFA"/>
</g>
<defs>
<clipPath id="clip0_31_955">
<rect width="20" height="20" fill="white"/>
</clipPath>
</defs>
</svg>
