<svg width="98" height="91" viewBox="0 0 98 91" fill="none" xmlns="http://www.w3.org/2000/svg">
<path d="M37.7686 14.3747C37.7686 15.4262 37.8822 16.4511 38.0976 17.4379H51.0428C52.1245 17.4412 53.161 17.8723 53.9258 18.6372C54.6907 19.4021 55.1219 20.4386 55.1251 21.5203V28.3374C54.6825 28.4342 54.2374 28.5096 53.7912 28.5638C60.8691 27.7098 66.354 21.6828 66.354 14.3747C66.354 6.48108 59.9549 0.0820312 52.0613 0.0820312C44.1677 0.0820312 37.7686 6.48108 37.7686 14.3747Z" fill="black"/>
<path d="M94.9393 18.9689C94.9393 24.8887 90.1403 29.6877 84.2205 29.6877C78.3007 29.6877 73.5018 24.8887 73.5018 18.9689C73.5018 13.0491 78.3007 8.25019 84.2205 8.25019C90.1403 8.25019 94.9393 13.0491 94.9393 18.9689Z" fill="black"/>
<path d="M93.406 32.7509C94.6244 32.7509 95.7928 33.2349 96.6543 34.0964C97.5158 34.9579 97.9998 36.1264 97.9998 37.3447V60.1236C97.9983 62.4031 97.4884 64.6537 96.5074 66.7114C95.5263 68.769 94.0987 70.582 92.3286 72.0183C90.5584 73.4547 88.4902 74.4781 86.2746 75.0143C84.059 75.5504 81.7517 75.5857 79.5207 75.1176C78.1063 74.7907 76.7547 74.2716 75.5001 73.5823C74.6509 76.3718 73.3047 79.0059 71.5068 81.3507C68.226 85.6293 63.6247 88.7054 58.4169 90.1016C53.2092 91.4978 47.6862 91.136 42.7051 89.0723C37.7239 87.0087 33.5633 83.3585 30.8688 78.6885C30.2794 77.709 29.7675 76.6851 29.3375 75.626H51.0506C51.3512 75.6305 51.6507 75.5892 51.9388 75.5034C52.841 75.3076 53.6489 74.8089 54.2284 74.0902C54.8078 73.3714 55.1238 72.476 55.1238 71.5528V32.7509L93.406 32.7509Z" fill="black"/>
<path fill-rule="evenodd" clip-rule="evenodd" d="M4.08231 20.5004H44.9177C46.0004 20.5004 47.0387 20.9305 47.8043 21.6961C48.5699 22.4617 49 23.5001 49 24.5828V65.4181C49 66.5008 48.5699 67.5392 47.8043 68.3048C47.0387 69.0703 46.0004 69.5004 44.9177 69.5004H4.08231C2.99962 69.5004 1.96126 69.0703 1.19568 68.3048C0.4301 67.5392 0 66.5008 0 65.4181V24.5828C0 23.5001 0.4301 22.4617 1.19568 21.6961C1.96126 20.9305 2.99962 20.5004 4.08231 20.5004ZM36.6891 35.7368H27.5322V60.298H21.5236V35.7368H12.3116V29.7036H36.6891V35.7368Z" fill="black"/>
</svg>
