<svg width="98" height="98" viewBox="0 0 98 98" fill="none" xmlns="http://www.w3.org/2000/svg">
<path d="M48.9292 78.4936C32.6497 78.4936 25.2117 70.2005 25.2117 64.1179C25.2095 62.6668 25.8051 61.2789 26.8582 60.2807C27.9114 59.2825 29.3292 58.7621 30.7781 58.8419C37.7481 58.8419 35.9249 69.297 48.9292 69.297C55.5765 69.297 59.481 65.2957 59.481 61.5364C59.481 59.2776 58.1903 56.6961 53.8018 55.6635L39.2809 52.001C27.6158 49.0323 25.5828 42.5463 25.5828 36.5282C25.5828 24.0402 37.0059 19.5226 47.8805 19.5226C57.8999 19.5226 69.807 25.0567 69.807 32.543C69.807 35.7699 67.1126 37.4962 63.9825 37.4962C58.029 37.4962 59.0293 29.1387 47.0576 29.1387C41.104 29.1387 37.974 31.9299 37.974 35.8344C37.974 39.7389 42.6045 41.0619 46.6704 41.9493L57.3836 44.3695C69.1294 47.0155 72.2594 53.9048 72.2594 60.5038C72.2594 70.6523 64.402 78.4936 48.9131 78.4936M93.8794 57.0188C94.3445 54.355 94.5766 51.6557 94.5732 48.9516C94.6301 35.3683 88.6618 22.4588 78.2769 13.703C67.8921 4.94725 54.1597 1.24638 40.7814 3.59802C36.6694 1.23052 32.0056 -0.010537 27.2608 6.73917e-05C17.5215 0.0595628 8.54415 5.27934 3.67451 13.7141C-1.19512 22.1488 -1.22663 32.5333 3.59175 40.9974C0.903131 55.7705 5.61279 70.9244 16.2016 81.5711C26.7904 92.2178 41.9184 97.01 56.7059 94.402C60.8129 96.7675 65.4709 98.0085 70.2104 98C79.9447 97.9372 88.9166 92.7197 93.7852 84.2901C98.6538 75.8604 98.6897 65.4818 93.8794 57.0188Z" fill="#121212"/>
</svg>
