<svg width="98" height="98" viewBox="0 0 98 98" fill="none" xmlns="http://www.w3.org/2000/svg">
<path d="M59.4445 41.8401C59.1374 41.8401 58.8421 41.7221 58.6196 41.5104C58.3971 41.2988 58.2644 41.0097 58.2491 40.703C58.0458 36.6362 56.1297 34.6448 52.2194 34.4344C51.9078 34.4097 51.6183 34.2641 51.4125 34.0289C51.2067 33.7937 51.101 33.4873 51.1178 33.1752C51.1347 32.8631 51.2729 32.57 51.5028 32.3583C51.7328 32.1466 52.0363 32.0332 52.3487 32.0422C57.5085 32.3264 60.377 35.2731 60.6414 40.5836C60.6492 40.7407 60.6261 40.8979 60.5732 41.0461C60.5203 41.1944 60.4387 41.3307 60.3331 41.4474C60.2275 41.5641 60.0999 41.6588 59.9577 41.7262C59.8155 41.7936 59.6614 41.8323 59.5042 41.8401H59.4445Z" fill="black"/>
<path d="M65.565 43.9012H65.5935C65.907 43.9006 66.2078 43.7772 66.4315 43.5574C66.6552 43.3377 66.784 43.0392 66.7903 42.7257C66.8955 38.0477 65.4641 34.0649 62.5857 30.9164C59.7073 27.7679 55.659 25.9812 50.5518 25.6073C50.2344 25.5841 49.9207 25.688 49.6799 25.8961C49.439 26.1041 49.2907 26.3993 49.2675 26.7167C49.2443 27.0342 49.3482 27.3478 49.5563 27.5887C49.7643 27.8295 50.0595 27.9778 50.377 28.001C54.9156 28.3336 58.32 29.8119 60.8189 32.5383C63.3177 35.2646 64.4876 38.5808 64.3952 42.676C64.3879 42.9935 64.5071 43.301 64.7265 43.5308C64.9458 43.7605 65.2475 43.8938 65.565 43.9012Z" fill="black"/>
<path d="M71.8862 46.3603C71.57 46.3599 71.2667 46.2347 71.0423 46.0119C70.8179 45.7891 70.6906 45.4868 70.6879 45.1705C70.6325 37.8459 68.5231 32.2511 64.2389 28.0692C60.0058 23.947 54.6584 21.8319 48.3429 21.7865C48.1856 21.7859 48.0299 21.7543 47.8847 21.6936C47.7395 21.6329 47.6077 21.5441 47.4969 21.4325C47.2729 21.207 47.1478 20.9017 47.1489 20.5839C47.15 20.2661 47.2774 19.9618 47.5029 19.7379C47.7284 19.5139 48.0336 19.3888 48.3514 19.3899H48.3614C55.3151 19.4411 61.2197 21.7836 65.9119 26.355C70.6041 30.9263 73.0234 37.2631 73.0859 45.1563C73.0882 45.4739 72.9643 45.7794 72.7415 46.0056C72.5187 46.2319 72.2151 46.3605 71.8976 46.3631L71.8862 46.3603Z" fill="black"/>
<path d="M55.1119 55.7162C54.2051 56.8335 52.5207 56.6913 52.5207 56.6913C40.2096 53.5485 36.9147 41.0782 36.9147 41.0782C36.9147 41.0782 36.7668 39.3938 37.8898 38.487L40.1143 36.7187C41.2174 35.8687 41.921 33.8062 40.798 31.792C39.9367 30.2801 39.0003 28.8123 37.9921 27.394C37.0128 26.0565 34.7313 23.3174 34.7228 23.3088C33.6226 22.0111 32.005 21.7097 30.2993 22.5981C30.2941 22.5981 30.2871 22.6004 30.2802 22.6026C30.2739 22.6047 30.2679 22.6066 30.2638 22.6066C28.5673 23.5841 27.0375 24.8259 25.7322 26.2853C25.7278 26.2942 25.7233 26.2985 25.7189 26.3027C25.7148 26.3066 25.7107 26.3105 25.7066 26.318C24.6529 27.5897 24.0497 28.8363 23.8971 30.0578C23.8655 30.2379 23.8545 30.4211 23.8644 30.6037C23.8588 31.1431 23.9409 31.6798 24.1075 32.1928L24.1658 32.2326C24.6974 34.1203 26.0279 37.2645 28.9191 42.5068C30.5728 45.5389 32.4801 48.4257 34.6205 51.1363C35.6928 52.4951 36.8423 53.7912 38.0632 55.0183C38.0779 55.033 38.0924 55.0477 38.1069 55.0623C38.1359 55.0916 38.1646 55.1206 38.194 55.1491L38.5863 55.5414C39.8134 56.7623 41.1095 57.9117 42.4682 58.9841C45.1791 61.1248 48.0664 63.0321 51.0992 64.6855C56.3401 67.5767 59.4871 68.9072 61.372 69.4388L61.4118 69.4971C61.9247 69.6642 62.4614 69.7468 63.0009 69.7415C63.1836 69.7504 63.3666 69.739 63.5467 69.7074C64.7701 69.5624 66.0158 68.9602 67.2837 67.9008C67.2912 67.8967 67.2951 67.8926 67.299 67.8885C67.3033 67.8841 67.3075 67.8796 67.3164 67.8752C68.7758 66.5695 70.018 65.0399 70.9965 63.3437C70.9965 63.3396 70.9982 63.3335 70.9999 63.3272C71.0017 63.3204 71.0036 63.3133 71.0036 63.3081C71.892 61.6024 71.5907 59.9848 70.2858 58.8832C70.2841 58.8832 70.1777 58.7955 69.9975 58.6471C69.258 58.0377 67.2762 56.4048 66.2006 55.6139C64.7837 54.6059 63.3174 53.6694 61.8069 52.8079C59.7913 51.685 57.7331 52.3886 56.8802 53.4917L55.1119 55.7162Z" fill="black"/>
<path fill-rule="evenodd" clip-rule="evenodd" d="M83.7766 11.6771C81.4227 9.50514 71.9105 2.59979 50.7225 2.50598C50.7225 2.50598 25.7364 0.999253 13.5561 12.1718C6.77587 18.9534 4.3907 28.8765 4.1391 41.1791C3.88751 53.4816 3.562 76.5374 25.7862 82.7888H25.8075L25.7933 92.3281C25.7933 92.3281 25.6512 96.1902 28.1941 96.9776C30.7612 97.7748 32.4432 95.8623 34.6365 93.3685C35.0713 92.8741 35.5262 92.3569 36.012 91.8335C37.6239 90.0964 39.8499 87.545 41.5272 85.5948C56.7267 86.8741 68.4166 83.9501 69.7442 83.518C70.0182 83.4292 70.4062 83.3305 70.8876 83.2081C75.7982 81.9595 90.431 78.2388 93.0032 57.2442C95.9186 33.482 91.5931 18.4517 83.7766 11.6771ZM86.3523 55.5399C84.2059 72.872 72.5729 75.5788 68.3813 76.5541C67.918 76.6619 67.545 76.7487 67.2865 76.8316C66.1821 77.1869 55.915 79.7413 43.0041 78.8984C43.0041 78.8984 33.3838 90.5044 30.3789 93.5221C29.9098 93.994 29.3583 94.1845 28.9901 94.0907C28.4727 93.9642 28.3306 93.3515 28.3363 92.456C28.3448 91.1767 28.4187 76.6042 28.4187 76.6042C10.24 71.5571 10.664 53.0428 10.9046 42.5345C10.9128 42.1754 10.9209 41.8257 10.9279 41.4861C11.1411 31.2105 13.0714 22.7928 18.8055 17.1312C29.1081 7.79942 50.3316 9.19385 50.3316 9.19385C68.2545 9.27203 76.8429 14.6692 78.8343 16.4773C85.4468 22.1389 88.8156 35.6866 86.3523 55.5342V55.5399Z" fill="black"/>
</svg>
