<svg width="107" height="107" viewBox="0 0 107 107" fill="none" xmlns="http://www.w3.org/2000/svg">
<path d="M90.5305 15.4656C80.5536 5.52343 67.2512 0 53.2097 0C24.0183 0 0.369507 23.5667 0.369507 52.6568C0.369507 61.8625 2.9561 71.0682 7.39024 78.801L0 106.05L28.0829 98.6854C35.8427 102.736 44.3415 104.945 53.2097 104.945C82.4012 104.945 106.05 81.3787 106.05 52.2885C105.68 38.6641 100.507 25.4078 90.5305 15.4656ZM78.7061 71.4365C77.5976 74.3823 72.4244 77.3281 69.8378 77.6964C67.6207 78.0646 64.6646 78.0646 61.7085 77.3281C59.861 76.5917 57.2744 75.8552 54.3183 74.3823C41.0159 68.8589 32.5171 55.6026 31.7781 54.4979C31.039 53.7615 26.2354 47.5016 26.2354 40.8734C26.2354 34.2453 29.561 31.2995 30.6695 29.8266C31.778 28.3536 33.2561 28.3536 34.3646 28.3536C35.1037 28.3536 36.2122 28.3536 36.9512 28.3536C37.6902 28.3536 38.7988 27.9854 39.9073 30.563C41.0159 33.1406 43.6024 39.7688 43.9719 40.137C44.3415 40.8734 44.3415 41.6099 43.9719 42.3464C43.6024 43.0828 43.2329 43.8193 42.4939 44.5557C41.7549 45.2922 41.0158 46.3969 40.6463 46.7651C39.9073 47.5016 39.1683 48.238 39.9073 49.3427C40.6463 50.8156 43.2329 54.8661 47.2976 58.5484C52.4707 62.9672 56.5354 64.4401 58.0134 65.1766C59.4915 65.913 60.2305 65.5448 60.9695 64.8083C61.7085 64.0719 64.2951 61.126 65.0342 59.6531C65.7732 58.1802 66.8817 58.5484 67.9902 58.9167C69.0988 59.2849 75.75 62.599 76.8585 63.3354C78.3366 64.0719 79.0756 64.4401 79.4451 64.8083C79.8146 65.913 79.8146 68.4906 78.7061 71.4365Z" fill="#121212"/>
</svg>
